<svg width="16" height="16" viewBox="0 0 16 16" fill="none" xmlns="http://www.w3.org/2000/svg">
<path d="M8.00092 0L9.66992 0.864L11.5279 1.146L12.3699 2.826L13.7069 4.146L13.4009 6L13.7069 7.854L12.3699 9.174L11.5279 10.854L9.66992 11.136L8.00092 12L6.33192 11.136L4.47392 10.854L3.63192 9.174L2.29492 7.854L2.60092 6L2.29492 4.146L3.63192 2.826L4.47392 1.146L6.33192 0.864L8.00092 0Z" fill="black"/>
<path d="M4 11.7949V16.0009L8 15.0009L12 16.0009V11.7949L9.982 12.1009L8 13.1269L6.018 12.1009L4 11.7949Z" fill="black"/>
</svg>
