<svg width="251" height="251" viewBox="0 0 251 251" fill="none" xmlns="http://www.w3.org/2000/svg">
<path d="M119.817 63.2375H71.2543C66.1225 63.236 61.1144 64.8138 56.9103 67.7567C52.7061 70.6996 49.5094 74.8651 47.7543 79.6875L0.75432 208.962C-0.90818 213.525 0.229319 218.637 3.65432 222.075L7.31682 225.737L87.5918 145.462C87.5793 145.137 87.4918 144.812 87.4918 144.487C87.4918 140.779 88.5915 137.154 90.6518 134.071C92.712 130.987 95.6404 128.584 99.0665 127.165C102.493 125.746 106.263 125.374 109.9 126.098C113.537 126.821 116.878 128.607 119.5 131.229C122.122 133.851 123.908 137.192 124.632 140.83C125.355 144.467 124.984 148.237 123.565 151.663C122.145 155.089 119.742 158.017 116.659 160.078C113.575 162.138 109.95 163.237 106.242 163.237C105.917 163.237 105.592 163.15 105.267 163.137L24.9918 243.412L28.6543 247.075C30.335 248.76 32.4629 249.928 34.7865 250.442C37.1102 250.956 39.5324 250.794 41.7668 249.975L171.042 202.962C175.864 201.207 180.03 198.011 182.973 193.807C185.916 189.602 187.493 184.594 187.492 179.462V130.9L212.479 105.925L144.804 38.25L119.817 63.2375V63.2375ZM224.229 89.0125L161.729 26.5125L188.229 0L250.729 62.5L224.229 89.0125Z" fill="black"/>
</svg>
