<svg width="24" height="24" viewBox="0 0 24 24" fill="none" xmlns="http://www.w3.org/2000/svg">
<path d="M23.6435 4.93757C22.8085 5.30757 21.9115 5.55757 20.9685 5.67057C21.9415 5.08836 22.6694 4.17203 23.0165 3.09257C22.1023 3.63555 21.1018 4.01776 20.0585 4.22257C19.3569 3.47343 18.4276 2.97689 17.4148 2.81004C16.4021 2.64319 15.3626 2.81536 14.4577 3.29982C13.5529 3.78428 12.8333 4.55393 12.4107 5.48927C11.988 6.42461 11.886 7.47332 12.1205 8.47257C10.2682 8.37956 8.45613 7.89811 6.80192 7.05947C5.14772 6.22083 3.68834 5.04373 2.5185 3.60457C2.1185 4.29457 1.8885 5.09457 1.8885 5.94657C1.88805 6.71356 2.07693 7.46881 2.43838 8.1453C2.79982 8.82179 3.32266 9.3986 3.9605 9.82457C3.22078 9.80103 2.49737 9.60115 1.8505 9.24157V9.30156C1.85043 10.3773 2.22253 11.4199 2.90368 12.2526C3.58483 13.0852 4.53307 13.6565 5.5875 13.8696C4.90128 14.0553 4.18184 14.0826 3.4835 13.9496C3.781 14.8752 4.3605 15.6846 5.14087 16.2645C5.92124 16.8444 6.86342 17.1657 7.8355 17.1836C6.18533 18.479 4.14739 19.1817 2.0495 19.1786C1.67788 19.1787 1.30658 19.157 0.9375 19.1136C3.06698 20.4827 5.54584 21.2094 8.0775 21.2066C16.6475 21.2066 21.3325 14.1086 21.3325 7.95257C21.3325 7.75257 21.3275 7.55056 21.3185 7.35056C22.2298 6.69154 23.0164 5.87546 23.6415 4.94057L23.6435 4.93757V4.93757Z" fill="black"/>
</svg>
